<svg width="28" height="28" viewBox="0 0 28 28" fill="none" xmlns="http://www.w3.org/2000/svg">
<path d="M25.8251 12.29C25.8241 12.289 25.8231 12.288 25.8211 12.286L15.0271 2.937C14.7521 2.675 14.3921 2.527 13.9891 2.521C13.6081 2.527 13.2481 2.675 13.0011 2.912L2.17505 12.29C1.75605 12.658 1.62905 13.245 1.86805 13.759C2.07905 14.215 2.56705 14.479 3.06905 14.479H5.00005V23.729C5.00005 24.695 5.78405 25.479 6.75005 25.479H11.0001C11.5521 25.479 12.0001 25.031 12.0001 24.479V18.309C12.0001 18.126 12.1481 17.979 12.3301 17.979H15.6701C15.8521 17.979 16.0001 18.126 16.0001 18.309V24.479C16.0001 25.031 16.4481 25.479 17.0001 25.479H21.2501C22.2171 25.479 23.0001 24.695 23.0001 23.729V14.479H24.9311C25.4331 14.479 25.9211 14.215 26.1321 13.759C26.3711 13.245 26.2441 12.658 25.8251 12.29Z" fill="#1877F2"/>
</svg>
