<svg width="20" height="20" viewBox="0 0 20 20" fill="none" xmlns="http://www.w3.org/2000/svg">
<path d="M5.60499 16.7771C6.57642 16.7771 8.17357 16.6879 10.3336 16.29C9.95999 17.3057 8.98642 18.0336 7.84285 18.0336C6.89214 18.0336 6.05928 17.53 5.58928 16.7771H5.60499ZM17.8021 11.2357C17.9786 12.1443 17.3414 12.9479 15.9071 13.6257C15.1214 13.9964 13.3743 14.7021 10.4886 15.2636C8.26285 15.6957 6.63214 15.795 5.60571 15.795C5.30071 15.795 5.04856 15.7864 4.84999 15.775C3.26714 15.6843 2.37428 15.1771 2.19785 14.2686C1.92999 12.8921 2.35356 12.3607 3.05571 11.4807L3.24071 11.2486C3.71428 10.6479 3.89928 10.0579 3.59642 8.50143C2.91856 5.01572 4.48857 2.63358 7.90285 1.96643C11.3186 1.30715 13.6671 2.92572 14.345 6.41215C14.6471 7.96858 15.04 8.44572 15.7043 8.825V8.82572L15.9629 8.97215C16.9429 9.525 17.5343 9.85858 17.8021 11.2357Z" fill="black"/>
</svg>
