<svg width="28" height="28" viewBox="0 0 28 28" fill="none" xmlns="http://www.w3.org/2000/svg">
<path d="M14.876 9.50649C15.1728 9.7136 15.1728 10.1701 14.876 10.3772L8.77735 14.6321C8.44507 14.8639 8 14.6146 8 14.1967V5.68701C8 5.26909 8.44507 5.01982 8.77735 5.25164L14.876 9.50649Z" fill="black"/>
<path fill-rule="evenodd" clip-rule="evenodd" d="M21.75 0H1.25C0.559644 0 0 0.585674 0 1.30814V18.5756C0 19.298 0.559644 19.8837 1.25 19.8837H21.75C22.4404 19.8837 23 19.298 23 18.5756V1.30814C23 0.585674 22.4404 0 21.75 0ZM1.25 1.30814H21.75V18.5756H1.25V1.30814Z" fill="black"/>
<path d="M2.75 21.1919H20.25C20.25 21.9143 19.6904 22.5 19 22.5H4C3.30964 22.5 2.75 21.9143 2.75 21.1919Z" fill="black"/>
</svg>
